<mxfile host="app.diagrams.net" modified="2023-04-07T08:27:21.751Z" agent="Mozilla/5.0 (Windows NT 10.0; Win64; x64) AppleWebKit/537.36 (KHTML, like Gecko) Chrome/101.0.0.0 Safari/537.36" version="21.1.5" etag="u8F4q6pwJm4ltybyRZUf" type="github">
  <diagram name="Страница 1" id="_T1QJ1KKNjq-hqwXNNV2">
    <mxGraphModel>
      <root>
        <mxCell id="0" />
        <mxCell id="1" parent="0" />
      </root>
    </mxGraphModel>
  </diagram>
</mxfile>
